<?xml version="1.0" encoding="UTF-8" standalone="no"?>
<!DOCTYPE svg PUBLIC "-//W3C//DTD SVG 1.1//EN"
 "http://www.w3.org/Graphics/SVG/1.1/DTD/svg11.dtd">
<!-- Generated by graphviz version 2.46.0 (0)
 -->
<!-- Title: callgraph Pages: 1 -->
<svg width="859pt" height="404pt"
 viewBox="0.00 0.00 858.91 404.00" xmlns="http://www.w3.org/2000/svg" xmlns:xlink="http://www.w3.org/1999/xlink">
<g id="graph0" class="graph" transform="scale(1 1) rotate(0) translate(4 400)">
<title>callgraph</title>
<polygon fill="white" stroke="transparent" points="-4,4 -4,-400 854.91,-400 854.91,4 -4,4"/>
<!-- pkg/completion -->
<g id="node1" class="node">
<title>pkg/completion</title>
<ellipse fill="none" stroke="black" cx="690" cy="-90" rx="81.79" ry="18"/>
<text text-anchor="middle" x="690" y="-86.3" font-family="Times,serif" font-size="14.00">pkg/completion</text>
</g>
<!-- pkg/db -->
<g id="node2" class="node">
<title>pkg/db</title>
<ellipse fill="none" stroke="black" cx="635" cy="-18" rx="42.49" ry="18"/>
<text text-anchor="middle" x="635" y="-14.3" font-family="Times,serif" font-size="14.00">pkg/db</text>
</g>
<!-- pkg/completion&#45;&gt;pkg/db -->
<g id="edge1" class="edge">
<title>pkg/completion&#45;&gt;pkg/db</title>
<path fill="none" stroke="black" d="M676.69,-72.05C669.9,-63.42 661.53,-52.76 654.07,-43.27"/>
<polygon fill="black" stroke="black" points="656.74,-41.01 647.81,-35.31 651.24,-45.33 656.74,-41.01"/>
</g>
<!-- pkg/news -->
<g id="node3" class="node">
<title>pkg/news</title>
<ellipse fill="none" stroke="black" cx="83" cy="-234" rx="54.69" ry="18"/>
<text text-anchor="middle" x="83" y="-230.3" font-family="Times,serif" font-size="14.00">pkg/news</text>
</g>
<!-- pkg/settings -->
<g id="node4" class="node">
<title>pkg/settings</title>
<ellipse fill="none" stroke="black" cx="247" cy="-18" rx="68.49" ry="18"/>
<text text-anchor="middle" x="247" y="-14.3" font-family="Times,serif" font-size="14.00">pkg/settings</text>
</g>
<!-- pkg/news&#45;&gt;pkg/settings -->
<g id="edge2" class="edge">
<title>pkg/news&#45;&gt;pkg/settings</title>
<path fill="none" stroke="black" d="M86.45,-215.98C93.65,-184.25 112.92,-115.38 152,-72 165.12,-57.44 183.22,-45.97 200.1,-37.49"/>
<polygon fill="black" stroke="black" points="201.8,-40.55 209.31,-33.08 198.78,-34.24 201.8,-40.55"/>
</g>
<!-- pkg/query -->
<g id="node5" class="node">
<title>pkg/query</title>
<ellipse fill="none" stroke="black" cx="456" cy="-90" rx="57.69" ry="18"/>
<text text-anchor="middle" x="456" y="-86.3" font-family="Times,serif" font-size="14.00">pkg/query</text>
</g>
<!-- pkg/query&#45;&gt;pkg/db -->
<g id="edge3" class="edge">
<title>pkg/query&#45;&gt;pkg/db</title>
<path fill="none" stroke="black" d="M490.51,-75.5C520.62,-63.73 564.28,-46.66 595.72,-34.36"/>
<polygon fill="black" stroke="black" points="597.01,-37.61 605.05,-30.71 594.46,-31.09 597.01,-37.61"/>
</g>
<!-- pkg/query&#45;&gt;pkg/settings -->
<g id="edge4" class="edge">
<title>pkg/query&#45;&gt;pkg/settings</title>
<path fill="none" stroke="black" d="M418.15,-76.32C384.24,-64.97 334.27,-48.23 297.07,-35.77"/>
<polygon fill="black" stroke="black" points="298.01,-32.39 287.42,-32.54 295.79,-39.03 298.01,-32.39"/>
</g>
<!-- pkg/vcs -->
<g id="node6" class="node">
<title>pkg/vcs</title>
<ellipse fill="none" stroke="black" cx="278" cy="-162" rx="46.29" ry="18"/>
<text text-anchor="middle" x="278" y="-158.3" font-family="Times,serif" font-size="14.00">pkg/vcs</text>
</g>
<!-- pkg/exe -->
<g id="node7" class="node">
<title>pkg/exe</title>
<ellipse fill="none" stroke="black" cx="245" cy="-90" rx="46.59" ry="18"/>
<text text-anchor="middle" x="245" y="-86.3" font-family="Times,serif" font-size="14.00">pkg/exe</text>
</g>
<!-- pkg/vcs&#45;&gt;pkg/exe -->
<g id="edge5" class="edge">
<title>pkg/vcs&#45;&gt;pkg/exe</title>
<path fill="none" stroke="black" d="M270.01,-144.05C266.2,-135.97 261.56,-126.12 257.31,-117.11"/>
<polygon fill="black" stroke="black" points="260.34,-115.34 252.91,-107.79 254.01,-118.33 260.34,-115.34"/>
</g>
<!-- pkg/upgrade -->
<g id="node8" class="node">
<title>pkg/upgrade</title>
<ellipse fill="none" stroke="black" cx="564" cy="-234" rx="69.59" ry="18"/>
<text text-anchor="middle" x="564" y="-230.3" font-family="Times,serif" font-size="14.00">pkg/upgrade</text>
</g>
<!-- pkg/upgrade&#45;&gt;pkg/db -->
<g id="edge7" class="edge">
<title>pkg/upgrade&#45;&gt;pkg/db</title>
<path fill="none" stroke="black" d="M565.56,-215.9C568.76,-185.76 577.68,-121.68 599,-72 603.28,-62.03 609.52,-51.97 615.61,-43.33"/>
<polygon fill="black" stroke="black" points="618.46,-45.35 621.57,-35.22 612.82,-41.21 618.46,-45.35"/>
</g>
<!-- pkg/upgrade&#45;&gt;pkg/settings -->
<g id="edge10" class="edge">
<title>pkg/upgrade&#45;&gt;pkg/settings</title>
<path fill="none" stroke="black" d="M565.12,-216C566.27,-183.04 563.73,-110.37 523,-72 494.61,-45.25 394.02,-31.24 322.49,-24.49"/>
<polygon fill="black" stroke="black" points="322.44,-20.97 312.16,-23.55 321.8,-27.94 322.44,-20.97"/>
</g>
<!-- pkg/upgrade&#45;&gt;pkg/query -->
<g id="edge6" class="edge">
<title>pkg/upgrade&#45;&gt;pkg/query</title>
<path fill="none" stroke="black" d="M551.19,-216.15C532.27,-191.28 496.75,-144.57 474.85,-115.79"/>
<polygon fill="black" stroke="black" points="477.64,-113.67 468.8,-107.82 472.06,-117.9 477.64,-113.67"/>
</g>
<!-- pkg/upgrade&#45;&gt;pkg/vcs -->
<g id="edge8" class="edge">
<title>pkg/upgrade&#45;&gt;pkg/vcs</title>
<path fill="none" stroke="black" d="M511.43,-222.1C464.43,-212.08 393.79,-196.35 333,-180 329.46,-179.05 325.81,-178.02 322.15,-176.96"/>
<polygon fill="black" stroke="black" points="323.09,-173.59 312.51,-174.09 321.1,-180.3 323.09,-173.59"/>
</g>
<!-- pkg/view -->
<g id="node9" class="node">
<title>pkg/view</title>
<ellipse fill="none" stroke="black" cx="660" cy="-162" rx="51.99" ry="18"/>
<text text-anchor="middle" x="660" y="-158.3" font-family="Times,serif" font-size="14.00">pkg/view</text>
</g>
<!-- pkg/upgrade&#45;&gt;pkg/view -->
<g id="edge9" class="edge">
<title>pkg/upgrade&#45;&gt;pkg/view</title>
<path fill="none" stroke="black" d="M586.27,-216.76C599.29,-207.27 615.91,-195.15 630.07,-184.82"/>
<polygon fill="black" stroke="black" points="632.5,-187.39 638.52,-178.67 628.37,-181.73 632.5,-187.39"/>
</g>
<!-- pkg/dep -->
<g id="node10" class="node">
<title>pkg/dep</title>
<ellipse fill="none" stroke="black" cx="390" cy="-162" rx="48.19" ry="18"/>
<text text-anchor="middle" x="390" y="-158.3" font-family="Times,serif" font-size="14.00">pkg/dep</text>
</g>
<!-- pkg/dep&#45;&gt;pkg/db -->
<g id="edge12" class="edge">
<title>pkg/dep&#45;&gt;pkg/db</title>
<path fill="none" stroke="black" d="M383.95,-143.84C378.22,-124.21 372.69,-92.2 389,-72 412.97,-42.32 518.74,-28.47 583.53,-22.66"/>
<polygon fill="black" stroke="black" points="583.9,-26.14 593.56,-21.8 583.3,-19.17 583.9,-26.14"/>
</g>
<!-- pkg/dep&#45;&gt;pkg/settings -->
<g id="edge13" class="edge">
<title>pkg/dep&#45;&gt;pkg/settings</title>
<path fill="none" stroke="black" d="M373.97,-144.88C356.18,-127.01 326.61,-97.38 301,-72 291.38,-62.47 280.74,-52.01 271.48,-42.93"/>
<polygon fill="black" stroke="black" points="273.66,-40.17 264.06,-35.67 268.76,-45.17 273.66,-40.17"/>
</g>
<!-- pkg/dep&#45;&gt;pkg/query -->
<g id="edge11" class="edge">
<title>pkg/dep&#45;&gt;pkg/query</title>
<path fill="none" stroke="black" d="M405.31,-144.76C413.6,-135.97 424.01,-124.93 433.24,-115.14"/>
<polygon fill="black" stroke="black" points="436,-117.31 440.32,-107.63 430.91,-112.51 436,-117.31"/>
</g>
<!-- pkg/db/ialpm -->
<g id="node11" class="node">
<title>pkg/db/ialpm</title>
<ellipse fill="none" stroke="black" cx="564" cy="-306" rx="71.49" ry="18"/>
<text text-anchor="middle" x="564" y="-302.3" font-family="Times,serif" font-size="14.00">pkg/db/ialpm</text>
</g>
<!-- pkg/db/ialpm&#45;&gt;pkg/db -->
<g id="edge15" class="edge">
<title>pkg/db/ialpm&#45;&gt;pkg/db</title>
<path fill="none" stroke="black" d="M631.52,-300.07C697.56,-293.69 791.41,-279.88 814,-252 864.36,-189.84 861.87,-136.1 814,-72 798.37,-51.07 731.47,-35.49 684.05,-26.81"/>
<polygon fill="black" stroke="black" points="684.42,-23.32 673.96,-25.02 683.19,-30.22 684.42,-23.32"/>
</g>
<!-- pkg/db/ialpm&#45;&gt;pkg/upgrade -->
<g id="edge14" class="edge">
<title>pkg/db/ialpm&#45;&gt;pkg/upgrade</title>
<path fill="none" stroke="black" d="M564,-287.7C564,-279.98 564,-270.71 564,-262.11"/>
<polygon fill="black" stroke="black" points="567.5,-262.1 564,-252.1 560.5,-262.1 567.5,-262.1"/>
</g>
<!-- pkg/pgp -->
<g id="node12" class="node">
<title>pkg/pgp</title>
<ellipse fill="none" stroke="black" cx="390" cy="-234" rx="48.19" ry="18"/>
<text text-anchor="middle" x="390" y="-230.3" font-family="Times,serif" font-size="14.00">pkg/pgp</text>
</g>
<!-- pkg/pgp&#45;&gt;pkg/dep -->
<g id="edge16" class="edge">
<title>pkg/pgp&#45;&gt;pkg/dep</title>
<path fill="none" stroke="black" d="M390,-215.7C390,-207.98 390,-198.71 390,-190.11"/>
<polygon fill="black" stroke="black" points="393.5,-190.1 390,-180.1 386.5,-190.1 393.5,-190.1"/>
</g>
<!-- pkg/yay -->
<g id="node13" class="node">
<title>pkg/yay</title>
<ellipse fill="none" stroke="black" cx="390" cy="-306" rx="46.59" ry="18"/>
<text text-anchor="middle" x="390" y="-302.3" font-family="Times,serif" font-size="14.00">pkg/yay</text>
</g>
<!-- pkg/yay&#45;&gt;pkg/completion -->
<g id="edge27" class="edge">
<title>pkg/yay&#45;&gt;pkg/completion</title>
<path fill="none" stroke="black" d="M431.45,-297.4C507.03,-283.49 660.01,-255.06 665,-252 699.56,-230.81 707.84,-218.35 721,-180 726.19,-164.87 725.18,-159.44 721,-144 718.42,-134.48 713.66,-124.92 708.62,-116.59"/>
<polygon fill="black" stroke="black" points="711.51,-114.6 703.15,-108.09 705.62,-118.39 711.51,-114.6"/>
</g>
<!-- pkg/yay&#45;&gt;pkg/db -->
<g id="edge19" class="edge">
<title>pkg/yay&#45;&gt;pkg/db</title>
<path fill="none" stroke="black" d="M431.63,-297.36C447.95,-294.39 466.85,-290.99 484,-288 579.01,-271.42 618.8,-307.04 698,-252 770.34,-201.73 831.56,-144.14 781,-72 759.82,-41.78 719.57,-28.73 686.68,-23.12"/>
<polygon fill="black" stroke="black" points="687.15,-19.65 676.74,-21.61 686.1,-26.57 687.15,-19.65"/>
</g>
<!-- pkg/yay&#45;&gt;pkg/news -->
<g id="edge20" class="edge">
<title>pkg/yay&#45;&gt;pkg/news</title>
<path fill="none" stroke="black" d="M349.93,-296.36C302.58,-286.09 221.44,-268.28 152,-252 146.59,-250.73 140.96,-249.39 135.34,-248.03"/>
<polygon fill="black" stroke="black" points="135.84,-244.55 125.29,-245.58 134.18,-251.35 135.84,-244.55"/>
</g>
<!-- pkg/yay&#45;&gt;pkg/settings -->
<g id="edge25" class="edge">
<title>pkg/yay&#45;&gt;pkg/settings</title>
<path fill="none" stroke="black" d="M346.22,-299.35C313.63,-293 270.09,-279.68 242,-252 182.59,-193.47 155.36,-148.31 189,-72 194.3,-59.98 203.81,-49.51 213.62,-41.12"/>
<polygon fill="black" stroke="black" points="215.85,-43.82 221.48,-34.85 211.48,-38.35 215.85,-43.82"/>
</g>
<!-- pkg/yay&#45;&gt;pkg/query -->
<g id="edge17" class="edge">
<title>pkg/yay&#45;&gt;pkg/query</title>
<path fill="none" stroke="black" d="M412.99,-290.24C425.4,-280.91 439.65,-267.66 447,-252 467.3,-208.74 464.53,-151.59 460.43,-118.3"/>
<polygon fill="black" stroke="black" points="463.84,-117.42 459.02,-107.98 456.91,-118.37 463.84,-117.42"/>
</g>
<!-- pkg/yay&#45;&gt;pkg/vcs -->
<g id="edge23" class="edge">
<title>pkg/yay&#45;&gt;pkg/vcs</title>
<path fill="none" stroke="black" d="M366.88,-290.09C353.19,-280.43 336.19,-266.9 324,-252 308.5,-233.06 296.15,-208.05 288.16,-189.37"/>
<polygon fill="black" stroke="black" points="291.33,-187.89 284.28,-179.98 284.86,-190.56 291.33,-187.89"/>
</g>
<!-- pkg/yay&#45;&gt;pkg/exe -->
<g id="edge26" class="edge">
<title>pkg/yay&#45;&gt;pkg/exe</title>
<path fill="none" stroke="black" d="M357.83,-292.91C316.64,-275.36 247.65,-238.39 223,-180 214.38,-159.59 221.64,-135.05 230.06,-116.92"/>
<polygon fill="black" stroke="black" points="233.4,-118.08 234.76,-107.57 227.14,-114.93 233.4,-118.08"/>
</g>
<!-- pkg/yay&#45;&gt;pkg/upgrade -->
<g id="edge21" class="edge">
<title>pkg/yay&#45;&gt;pkg/upgrade</title>
<path fill="none" stroke="black" d="M421.11,-292.49C448.19,-281.59 487.79,-265.66 518.44,-253.33"/>
<polygon fill="black" stroke="black" points="520.08,-256.44 528.05,-249.46 517.47,-249.95 520.08,-256.44"/>
</g>
<!-- pkg/yay&#45;&gt;pkg/view -->
<g id="edge24" class="edge">
<title>pkg/yay&#45;&gt;pkg/view</title>
<path fill="none" stroke="black" d="M431.39,-297.56C501.21,-284.85 635.57,-259.56 643,-252 658.72,-236 662.2,-210.21 662.2,-190.5"/>
<polygon fill="black" stroke="black" points="665.69,-190.17 661.9,-180.28 658.7,-190.38 665.69,-190.17"/>
</g>
<!-- pkg/yay&#45;&gt;pkg/dep -->
<g id="edge22" class="edge">
<title>pkg/yay&#45;&gt;pkg/dep</title>
<path fill="none" stroke="black" d="M366.68,-290.39C354.16,-281.11 339.91,-267.86 333,-252 326.61,-237.33 326.61,-230.67 333,-216 338.41,-203.59 348.32,-192.77 358.37,-184.2"/>
<polygon fill="black" stroke="black" points="360.74,-186.79 366.39,-177.83 356.38,-181.31 360.74,-186.79"/>
</g>
<!-- pkg/yay&#45;&gt;pkg/pgp -->
<g id="edge18" class="edge">
<title>pkg/yay&#45;&gt;pkg/pgp</title>
<path fill="none" stroke="black" d="M390,-287.7C390,-279.98 390,-270.71 390,-262.11"/>
<polygon fill="black" stroke="black" points="393.5,-262.1 390,-252.1 386.5,-262.1 393.5,-262.1"/>
</g>
<!-- github.com/Jguer/yay/v10 -->
<g id="node14" class="node">
<title>github.com/Jguer/yay/v10</title>
<ellipse fill="none" stroke="black" cx="390" cy="-378" rx="129.98" ry="18"/>
<text text-anchor="middle" x="390" y="-374.3" font-family="Times,serif" font-size="14.00">github.com/Jguer/yay/v10</text>
</g>
<!-- github.com/Jguer/yay/v10&#45;&gt;pkg/settings -->
<g id="edge30" class="edge">
<title>github.com/Jguer/yay/v10&#45;&gt;pkg/settings</title>
<path fill="none" stroke="black" d="M307.29,-364.03C192.81,-343.71 0,-299.85 0,-235 0,-235 0,-235 0,-161 0,-78.8 104.09,-43.48 177.12,-28.82"/>
<polygon fill="black" stroke="black" points="178.05,-32.2 187.21,-26.88 176.73,-25.33 178.05,-32.2"/>
</g>
<!-- github.com/Jguer/yay/v10&#45;&gt;pkg/db/ialpm -->
<g id="edge29" class="edge">
<title>github.com/Jguer/yay/v10&#45;&gt;pkg/db/ialpm</title>
<path fill="none" stroke="black" d="M430.36,-360.76C456.67,-350.18 491.06,-336.34 518.37,-325.36"/>
<polygon fill="black" stroke="black" points="519.74,-328.58 527.71,-321.6 517.13,-322.08 519.74,-328.58"/>
</g>
<!-- github.com/Jguer/yay/v10&#45;&gt;pkg/yay -->
<g id="edge28" class="edge">
<title>github.com/Jguer/yay/v10&#45;&gt;pkg/yay</title>
<path fill="none" stroke="black" d="M390,-359.7C390,-351.98 390,-342.71 390,-334.11"/>
<polygon fill="black" stroke="black" points="393.5,-334.1 390,-324.1 386.5,-334.1 393.5,-334.1"/>
</g>
</g>
</svg>
